Coordinates
version=1
nRows=5
nColumns=40
inDegrees=yes

Units are S.I. units (second, meters, Newtons, ...)
If the header above contains a line with 'inDegrees', this indicates whether rotational values are in degrees (yes) or radians (no).

endheader
time	pelvis_tilt	pelvis_list	pelvis_rotation	pelvis_tx	pelvis_ty	pelvis_tz	hip_flexion_r	hip_adduction_r	hip_rotation_r	knee_angle_r	knee_angle_r_beta	ankle_angle_r	subtalar_angle_r	mtp_angle_r	hip_flexion_l	hip_adduction_l	hip_rotation_l	knee_angle_l	knee_angle_l_beta	ankle_angle_l	subtalar_angle_l	mtp_angle_l	lumbar_extension	lumbar_bending	lumbar_rotation	arm_flex_r	arm_add_r	arm_rot_r	elbow_flex_r	pro_sup_r	wrist_flex_r	wrist_dev_r	arm_flex_l	arm_add_l	arm_rot_l	elbow_flex_l	pro_sup_l	wrist_flex_l	wrist_dev_l
      0.00000000	    -22.41261186	     -5.78016404	     -1.75246678	      0.08724865	      1.28033413	     -0.00531031	     87.89661839	      4.44073614	     10.28966465	    101.66504838	      1.77438983	      3.56811570	    -18.60370794	      0.00000000	     47.70571035	    -17.05710285	     -7.48291202	     41.29032770	      0.72065217	    -13.60264357	    -14.90701378	      0.00000000	    -43.39028736	     -3.99630503	     11.08923686	     56.34610687	     17.88628955	    -39.51294164	     53.19242456	      0.98003036	      0.00000000	      0.00000000	     51.85139333	      7.66856849	    -21.21101420	     40.91178040	      2.92282526	      0.00000000	      0.00000000
      0.01700000	    -22.07318574	     -5.61110259	     -1.25993836	      0.08731197	      1.28074527	     -0.00597622	     87.13675884	      4.15804609	     10.32875114	     99.00919031	      1.72803636	      6.01380379	    -19.88173566	      0.00000000	     47.23534674	    -16.47766446	     -7.20827892	     43.87015843	      0.76567871	    -12.46112671	    -15.49697022	      0.00000000	    -43.72678559	     -3.85528535	     10.69998098	     56.19893555	     18.03797600	    -39.69476968	     53.32276773	      1.00024913	      0.00000000	      0.00000000	     51.73008891	      7.82882419	    -21.51949869	     40.93894430	      2.88599352	      0.00000000	      0.00000000
      0.03300000	    -21.67725143	     -5.60026433	     -0.70984926	      0.08741261	      1.28123443	     -0.00673397	     86.27437015	      3.82486498	     10.22230455	     96.28201779	      1.68043822	      8.28347666	    -21.15870338	      0.00000000	     46.72784256	    -15.95388222	     -6.69562863	     46.37963061	      0.80947726	    -11.52842010	    -16.05623577	      0.00000000	    -44.12369691	     -3.54096748	     10.36808992	     56.04284567	     18.17224450	    -39.83601220	     53.44496983	      1.00313342	      0.00000000	      0.00000000	     51.60886041	      8.02186221	    -21.94769611	     41.00325478	      2.84964414	      0.00000000	      0.00000000
      0.05000000	    -21.27901410	     -5.46357504	     -0.05359705	      0.08751515	      1.28182720	     -0.00771664	     85.16363968	      3.25439581	     10.05236379	     93.20096379	      1.62666368	      9.88920346	    -22.41735474	      0.00000000	     46.62399991	    -15.38973476	     -6.16023069	     49.48606058	      0.86369469	    -10.49532019	    -16.34913624	      0.00000000	    -44.53921224	     -3.23931062	      9.88194265	     55.93809569	     18.26022152	    -39.91476569	     53.53450026	      1.01038821	      0.00000000	      0.00000000	     51.55011075	      8.17356591	    -22.26832620	     41.01817589	      2.89987182	      0.00000000	      0.00000000
      0.06700000	    -20.94905134	     -5.04163103	      0.68441945	      0.08772828	      1.28237962	     -0.00863612	     83.81281742	      2.39536478	      9.83913214	     89.63201598	      1.56437379	     10.78703894	    -23.51723633	      0.00000000	     47.11017157	    -14.79752537	     -5.84485715	     53.49894606	      0.93373276	     -9.12217627	    -16.24384810	      0.00000000	    -44.88311523	     -3.13188302	      9.17034778	     55.83620892	     18.24787992	    -39.99241046	     53.59590282	      0.99842387	      0.00000000	      0.00000000	     51.60421448	      8.21919594	    -22.33133922	     40.91097519	      3.12941345	      0.00000000	      0.00000000
